<?xml version="1.0" standalone="no"?>
<!DOCTYPE svg PUBLIC "-//W3C//DTD SVG 20010904//EN"
 "http://www.w3.org/TR/2001/REC-SVG-20010904/DTD/svg10.dtd">
<svg version="1.0" xmlns="http://www.w3.org/2000/svg"
 width="789.000000pt" height="789.000000pt" viewBox="0 0 789.000000 789.000000"
 preserveAspectRatio="xMidYMid meet">

<g transform="translate(0.000000,789.000000) scale(0.100000,-0.100000)"
fill="#000000" stroke="none">
<path d="M1362 7579 c-140 -24 -282 -90 -405 -188 -126 -102 -212 -227 -269
-391 l-33 -95 -5 -450 -5 -450 -140 -6 c-231 -11 -280 -25 -360 -100 -72 -68
-90 -115 -82 -217 6 -96 36 -160 100 -219 66 -61 163 -82 370 -83 l117 0 0
-249 0 -249 -183 -5 c-116 -3 -196 -9 -221 -18 -51 -18 -144 -103 -167 -154
-23 -49 -25 -153 -5 -218 19 -63 79 -142 129 -171 57 -33 132 -46 300 -54
l142 -7 3 -247 2 -246 -182 -5 c-105 -2 -200 -9 -222 -17 -55 -17 -160 -123
-175 -176 -16 -57 -13 -144 6 -205 22 -68 108 -159 168 -177 69 -20 176 -32
293 -32 l112 0 0 -250 0 -250 -134 0 c-138 0 -262 -17 -313 -44 -39 -20 -111
-99 -129 -141 -19 -45 -18 -158 2 -224 11 -40 30 -68 72 -111 77 -78 118 -90
332 -99 l165 -6 5 -390 6 -390 27 -80 c96 -284 336 -507 621 -575 78 -19 131
-20 1674 -20 1416 0 1601 2 1670 16 256 53 483 218 611 445 17 31 31 60 31 66
0 7 -83 12 -232 16 -214 5 -324 16 -473 47 l-55 12 -73 -68 c-151 -140 -333
-244 -502 -286 -129 -32 -337 -32 -450 0 -229 66 -444 227 -572 429 l-46 73
-451 0 c-253 0 -480 5 -516 10 -197 31 -358 183 -405 382 -13 55 -15 371 -15
2369 0 1494 4 2325 10 2360 25 136 132 280 257 347 122 65 75 63 1320 60
l1128 -3 58 -23 c83 -34 174 -107 224 -180 68 -100 76 -137 81 -374 l4 -206
66 -12 c115 -19 422 -98 547 -140 65 -22 123 -36 128 -31 4 4 6 230 5 502 -4
480 -5 496 -27 569 -72 239 -246 444 -466 550 -192 93 -19 85 -1825 86 -902 1
-1618 -2 -1648 -7z"/>
<path d="M3507 5790 c-246 -63 -348 -323 -218 -555 31 -55 102 -115 159 -135
23 -7 142 -15 317 -20 296 -9 432 -24 660 -75 271 -61 546 -160 820 -296 301
-149 497 -284 742 -511 483 -446 813 -987 973 -1592 61 -233 86 -410 99 -701
9 -203 18 -245 67 -316 32 -47 91 -84 177 -111 166 -53 339 25 413 185 29 61
29 64 28 237 -2 364 -73 767 -204 1160 -155 466 -347 818 -658 1205 -129 160
-477 508 -634 633 -565 449 -1320 764 -2093 873 -159 23 -585 35 -648 19z"/>
<path d="M3528 4594 c-250 -60 -360 -282 -257 -520 26 -62 91 -128 152 -155
47 -20 73 -23 282 -30 392 -13 534 -39 816 -150 411 -162 805 -491 1041 -871
120 -194 227 -461 267 -672 12 -60 28 -184 37 -275 17 -194 27 -248 54 -300
47 -93 178 -156 320 -156 61 1 86 6 131 28 67 32 142 109 172 175 39 87 34
326 -12 589 -77 440 -258 848 -538 1215 -98 130 -366 400 -502 507 -434 344
-910 542 -1474 616 -147 19 -410 19 -489 -1z"/>
<path d="M3512 3415 c-110 -31 -201 -106 -249 -203 -24 -49 -28 -69 -28 -142
0 -181 87 -310 240 -356 29 -8 124 -19 225 -24 116 -6 201 -16 252 -29 347
-90 605 -338 698 -672 11 -41 29 -129 40 -197 11 -68 26 -138 34 -156 36 -86
129 -145 265 -168 63 -11 81 -10 139 5 116 30 207 108 240 206 17 49 15 227
-4 345 -109 686 -677 1253 -1380 1377 -158 27 -399 35 -472 14z"/>
<path d="M3617 2245 c-87 -24 -160 -68 -233 -140 -111 -109 -154 -213 -154
-369 1 -162 41 -266 144 -368 129 -130 311 -184 488 -147 180 39 358 208 397
380 60 261 -112 560 -367 639 -75 23 -200 26 -275 5z"/>
</g>
</svg>
